<svg id="Layer_5" enable-background="new 0 0 64 64" height="40" viewBox="0 0 64 64" width="40" xmlns="http://www.w3.org/2000/svg"><g fill="#f0bc5e"><path d="m25 33h1c1.105 0 2-.895 2-2v-8.787c-1.345-1.601-3.068-2.808-5-3.506v12.293c0 1.105.895 2 2 2z"/><path d="m13 33c1.105 0 2-.895 2-2v-12.366c-1.896.613-3.597 1.651-5 2.999v9.367c0 1.105.895 2 2 2z"/><path d="m36.798 39.401c-.593.444-1.316.652-2.067.587-.896-.078-1.694-.606-2.234-1.326l-.289-.368-.148-.001.987 20.707h3.906l.985-20.666-.264-.002c-.205.414-.495.784-.876 1.069z"/><path d="m36.798 39.401c-.593.444-1.316.652-2.067.587-.896-.078-1.694-.606-2.234-1.326l-.289-.368-.148-.001.987 20.707h3.906l.985-20.666-.264-.002c-.205.414-.495.784-.876 1.069z"/><path d="m52 1c-6.065 0-11 4.935-11 11v.667c0 2.363.781 4.707 2.2 6.6l6.4 8.533c.563.752 1.461 1.2 2.4 1.2s1.837-.448 2.399-1.2l6.4-8.533c1.419-1.893 2.2-4.236 2.2-6.6v-.667c.001-6.065-4.934-11-10.999-11zm0 17c-3.314 0-6-2.686-6-6s2.686-6 6-6 6 2.686 6 6-2.686 6-6 6z"/></g><path d="m52 19c3.859 0 7-3.141 7-7s-3.141-7-7-7-7 3.141-7 7 3.141 7 7 7zm0-12c2.757 0 5 2.243 5 5s-2.243 5-5 5-5-2.243-5-5 2.243-5 5-5z"/><path d="m35.613 31-3.613-5.027v-9.973c0-2.44-1.759-4.47-4.073-4.906.044-.36.073-.723.073-1.094 0-.338-.022-.671-.059-1h2.059v-2h-2.525c-1.239-3.49-4.565-6-8.475-6s-7.236 2.51-8.475 6h-2.525v2h2.059c-.037.329-.059.662-.059 1 0 .371.029.734.073 1.094-2.314.436-4.073 2.466-4.073 4.906v9.834c-.638 1.6-1 3.34-1 5.166h-4v32h62v-32zm-5.613-15v7.19l-.626-.871c-1.495-2.08-3.569-3.636-5.915-4.512 1.84-1.055 3.269-2.74 3.999-4.761 1.436.223 2.542 1.457 2.542 2.954zm-11-13c2.785 0 5.188 1.639 6.315 4h-12.63c1.127-2.361 3.53-4 6.315-4zm-6.92 6h13.84c.047.328.08.66.08 1 0 3.859-3.141 7-7 7s-7-3.141-7-7c0-.34.033-.672.08-1zm9.593 10.346-2.673 3.118-2.698-3.147c.869-.201 1.769-.317 2.698-.317.911 0 1.807.123 2.673.346zm-13.673-3.346c0-1.497 1.106-2.731 2.542-2.954.721 1.995 2.123 3.662 3.931 4.719-2.58.885-4.819 2.5-6.473 4.602zm-1 15c0-4.928 2.987-9.167 7.244-11.012l4.756 5.548 4.674-5.453c1.6.772 3.014 1.926 4.075 3.404l8.852 12.314c.32.426.455.951.379 1.48-.075.529-.353.998-.781 1.319-.399.299-.879.43-1.381.391-.561-.049-1.114-.388-1.533-.947l-4.982-6.359-.328-.425c-.088.669-.509 1.22-1.089 1.511-.269.137-.564.229-.886.229h-1v21.5c0 1.379-1.121 2.5-2.5 2.5s-2.5-1.121-2.5-2.5v-17.5h-2v17.5c0 1.379-1.121 2.5-2.5 2.5s-2.5-1.121-2.5-2.5v-21.5h-1c-.366 0-.705-.106-1-.277v6.277h-1c-1.654 0-3-1.346-3-3zm-4 2h2v3c0 2.757 2.243 5 5 5h1v2h-8zm0 12h8v4h-8zm58 16h-6v-10h6zm0-12h-8v12h-4v-12h-11.57l-.095 2h9.665v10h-44v-10h8v3.5c0 2.481 2.019 4.5 4.5 4.5 1.421 0 2.675-.675 3.5-1.706.825 1.031 2.079 1.706 3.5 1.706 2.481 0 4.5-2.019 4.5-4.5v-3.5h5.666l-.095-2h-5.571v-4h5.38l-.095-2h-5.285v-9.732l4.696 5.994c.747.996 1.821 1.625 2.947 1.723.989.09 1.965-.192 2.754-.782.856-.643 1.411-1.578 1.562-2.637.151-1.06-.119-2.113-.748-2.949l-1.161-1.617h9.95v10h-9.284l-.095 2h11.379v-12h4v12h8zm0-6h-6v-10h6z"/></svg>